<svg version="1.1" id="Layer_1" xmlns="http://www.w3.org/2000/svg" xmlns:xlink="http://www.w3.org/1999/xlink" x="0px" y="0px"
	 width="100%" viewBox="0 0 171 99" enable-background="new 0 0 171 99" xml:space="preserve">
<path fill="#0B0B0B" opacity="1.000000" stroke="none" 
	d="
M99.000000,100.000000 
	C66.000008,100.000000 33.500008,100.000000 1.000009,100.000000 
	C1.000006,67.000008 1.000006,34.000015 1.000003,1.000018 
	C57.999985,1.000012 114.999969,1.000012 171.999969,1.000006 
	C171.999969,33.999981 171.999969,66.999962 171.999985,99.999969 
	C147.833328,100.000000 123.666664,100.000000 99.000000,100.000000 
M136.172928,72.645699 
	C136.210831,61.986717 136.412231,51.325031 136.235931,40.669594 
	C136.089554,31.822632 129.542480,25.378349 120.731865,26.195034 
	C116.286896,26.607052 112.046738,29.228584 106.969315,31.129890 
	C101.413910,25.090963 93.899597,23.942904 86.354820,28.247438 
	C83.918686,27.343790 82.094299,26.105913 80.249687,26.074989 
	C69.258972,25.890730 58.258461,25.805391 47.273487,26.117670 
	C44.657288,26.192041 41.742760,27.423473 39.568733,28.970497 
	C35.070087,32.171719 33.605415,38.113491 35.363220,43.330631 
	C37.076527,48.415699 41.939674,51.946609 47.524952,52.001354 
	C54.053066,52.065334 60.582287,52.016308 67.952751,52.016308 
	C64.743355,57.761688 62.354286,62.528847 59.450359,66.958488 
	C58.495350,68.415253 56.256374,69.728447 54.519657,69.845230 
	C49.047428,70.213226 43.532898,70.072052 38.038811,69.947884 
	C34.986427,69.878906 34.109234,70.960037 35.419785,74.018532 
	C45.735638,74.018532 56.049370,74.168182 66.355072,73.945663 
	C70.540794,73.855293 74.709038,72.955109 78.697464,72.447304 
	C80.252495,73.011742 81.967178,73.634132 84.552277,74.572464 
	C84.552277,62.528591 84.552277,51.645660 84.552277,40.762730 
	C86.398422,41.778301 87.324158,43.052296 88.091675,44.415382 
	C92.911758,52.975643 97.849129,61.475609 102.416687,70.169434 
	C104.197525,73.559059 106.266678,74.938461 110.306755,73.434052 
	C110.306755,63.287849 110.326157,52.987995 110.297676,42.688274 
	C110.285446,38.265614 111.510078,34.465347 115.398933,31.924768 
	C118.754974,29.732275 122.279869,29.494049 125.790695,31.423811 
	C129.790085,33.622112 131.700287,37.119736 131.694946,41.688759 
	C131.682556,52.310860 131.690994,62.932987 131.690994,74.102615 
	C133.492798,73.834084 134.729401,73.649780 136.172928,72.645699 
z"/>
<path fill="#8B8B8B" opacity="1.000000" stroke="none" 
	d="
M136.069458,73.055588 
	C134.729401,73.649780 133.492798,73.834084 131.690994,74.102615 
	C131.690994,62.932987 131.682556,52.310860 131.694946,41.688759 
	C131.700287,37.119736 129.790085,33.622112 125.790695,31.423811 
	C122.279869,29.494049 118.754974,29.732275 115.398933,31.924768 
	C111.510078,34.465347 110.285446,38.265614 110.297676,42.688274 
	C110.326157,52.987995 110.306755,63.287849 110.306755,73.434052 
	C106.266678,74.938461 104.197525,73.559059 102.416687,70.169434 
	C97.849129,61.475609 92.911758,52.975643 88.091675,44.415382 
	C87.324158,43.052296 86.398422,41.778301 84.552277,40.762730 
	C84.552277,51.645660 84.552277,62.528591 84.552277,74.572464 
	C81.967178,73.634132 80.252495,73.011742 78.697464,72.447304 
	C74.709038,72.955109 70.540794,73.855293 66.355072,73.945663 
	C56.049370,74.168182 45.735638,74.018532 35.419785,74.018532 
	C34.109234,70.960037 34.986427,69.878906 38.038811,69.947884 
	C43.532898,70.072052 49.047428,70.213226 54.519657,69.845230 
	C56.256374,69.728447 58.495350,68.415253 59.450359,66.958488 
	C62.354286,62.528847 64.743355,57.761688 67.952751,52.016308 
	C60.582287,52.016308 54.053066,52.065334 47.524952,52.001354 
	C41.939674,51.946609 37.076527,48.415699 35.363220,43.330631 
	C33.605415,38.113491 35.070087,32.171719 39.568733,28.970497 
	C41.742760,27.423473 44.657288,26.192041 47.273487,26.117670 
	C58.258461,25.805391 69.258972,25.890730 80.249687,26.074989 
	C82.094299,26.105913 83.918686,27.343790 86.354820,28.247438 
	C93.899597,23.942904 101.413910,25.090963 106.969315,31.129890 
	C112.046738,29.228584 116.286896,26.607052 120.731865,26.195034 
	C129.542480,25.378349 136.089554,31.822632 136.235931,40.669594 
	C136.412231,51.325031 136.210831,61.986717 136.069458,73.055588 
M56.537086,47.985252 
	C60.198895,47.984047 63.865780,48.090923 67.519592,47.919369 
	C68.699341,47.863979 70.401215,47.414856 70.914848,46.569206 
	C74.067261,41.379051 76.947334,36.023483 80.302216,30.037584 
	C68.924744,30.037584 58.480698,29.867804 48.046295,30.111353 
	C43.053295,30.227896 39.486885,34.168110 39.350677,38.757557 
	C39.213795,43.369843 42.529533,47.185474 47.586578,47.821808 
	C50.211227,48.152073 52.903122,47.947960 56.537086,47.985252 
M89.464531,31.837688 
	C89.454956,33.527966 88.838852,35.538940 89.535217,36.855953 
	C93.736954,44.802517 98.226357,52.597446 102.654755,60.423168 
	C103.312599,61.585705 104.156631,62.642879 105.738113,64.950577 
	C105.738113,56.239475 105.829239,49.103935 105.715340,41.971668 
	C105.568832,32.797894 98.872421,28.324368 89.464531,31.837688 
M69.604065,59.106678 
	C67.724724,62.541210 65.845390,65.975739 63.864979,69.595001 
	C72.325272,70.509926 76.466301,68.769180 78.150871,63.895870 
	C79.608383,59.679413 78.067291,56.111671 73.209824,52.981003 
	C72.114388,54.808434 71.023117,56.628914 69.604065,59.106678 
z"/>
<path fill="#0C0C0C" opacity="1.000000" stroke="none" 
	d="
M56.050861,47.985252 
	C52.903122,47.947960 50.211227,48.152073 47.586578,47.821808 
	C42.529533,47.185474 39.213795,43.369843 39.350677,38.757557 
	C39.486885,34.168110 43.053295,30.227896 48.046295,30.111353 
	C58.480698,29.867804 68.924744,30.037584 80.302216,30.037584 
	C76.947334,36.023483 74.067261,41.379051 70.914848,46.569206 
	C70.401215,47.414856 68.699341,47.863979 67.519592,47.919369 
	C63.865780,48.090923 60.198895,47.984047 56.050861,47.985252 
z"/>
<path fill="#111111" opacity="1.000000" stroke="none" 
	d="
M89.787506,31.627333 
	C98.872421,28.324368 105.568832,32.797894 105.715340,41.971668 
	C105.829239,49.103935 105.738113,56.239475 105.738113,64.950577 
	C104.156631,62.642879 103.312599,61.585705 102.654755,60.423168 
	C98.226357,52.597446 93.736954,44.802517 89.535217,36.855953 
	C88.838852,35.538940 89.454956,33.527966 89.787506,31.627333 
z"/>
<path fill="#111111" opacity="1.000000" stroke="none" 
	d="
M69.767960,58.778038 
	C71.023117,56.628914 72.114388,54.808434 73.209824,52.981003 
	C78.067291,56.111671 79.608383,59.679413 78.150871,63.895870 
	C76.466301,68.769180 72.325272,70.509926 63.864979,69.595001 
	C65.845390,65.975739 67.724724,62.541210 69.767960,58.778038 
z"/>
</svg>