<?xml version="1.0" encoding="UTF-8"?>
<svg version="1.1" xmlns="http://www.w3.org/2000/svg" width="107" height="111">
<path d="M0 0 C1.80164108 0.0001133 1.80164108 0.0001133 3.63967896 0.00022888 C5.59283524 0.00797081 5.59283524 0.00797081 7.58544922 0.01586914 C8.92780505 0.01773401 10.27016156 0.01915759 11.61251831 0.02015686 C15.14709347 0.02397661 18.68162759 0.03380227 22.21618652 0.04486084 C25.82234136 0.05508661 29.42850282 0.05965698 33.03466797 0.06469727 C40.11150768 0.07542501 47.18831952 0.09249494 54.26513672 0.11352539 C55.48671459 4.33720611 55.11456802 8.23273096 54.74169922 12.56274414 C54.67606781 13.37596634 54.6104364 14.18918854 54.54281616 15.02705383 C54.40296455 16.74111599 54.25987664 18.45491676 54.11376953 20.16845703 C53.89012066 22.80121446 53.67844043 25.43474012 53.46826172 28.06860352 C53.33094917 29.73337563 53.19295217 31.39809146 53.05419922 33.06274414 C52.99060211 33.85436447 52.927005 34.6459848 52.86148071 35.46159363 C52.38058717 40.99807494 52.38058717 40.99807494 51.26513672 42.11352539 C49.76094933 42.20664429 48.25242316 42.23098567 46.74536133 42.22705078 C45.30398048 42.22693748 45.30398048 42.22693748 43.83348083 42.2268219 C42.78870071 42.22166061 41.74392059 42.21649933 40.66748047 42.21118164 C39.60348526 42.20976669 38.53949005 42.20835175 37.44325256 42.20689392 C34.02968589 42.20127603 30.61618372 42.1887205 27.20263672 42.17602539 C24.89469495 42.1710127 22.58675217 42.16644939 20.27880859 42.16235352 C14.60756245 42.15130079 8.93635419 42.13454526 3.26513672 42.11352539 C3.416888 39.07435764 3.57085021 36.03532862 3.72607422 32.99633789 C3.78976196 31.71400269 3.78976196 31.71400269 3.85473633 30.40576172 C4.08584104 25.91541882 4.38734013 21.45846018 4.89013672 16.98852539 C5.01388672 15.70977539 5.13763672 14.43102539 5.26513672 13.11352539 C4.93513672 12.78352539 4.60513672 12.45352539 4.26513672 12.11352539 C4.26513672 15.41352539 4.26513672 18.71352539 4.26513672 22.11352539 C3.60513672 29.04352539 2.94513672 35.97352539 2.26513672 43.11352539 C18.43513672 43.11352539 34.60513672 43.11352539 51.26513672 43.11352539 C51.26513672 52.86316059 51.11990892 62.31269041 50.32763672 71.98852539 C50.240625 73.15254883 50.15361328 74.31657227 50.06396484 75.51586914 C49.39549386 83.98316825 49.39549386 83.98316825 48.26513672 85.11352539 C46.30144519 85.20753209 44.33434473 85.2309592 42.3684082 85.22705078 C41.10717636 85.22697525 39.84594452 85.22689972 38.54649353 85.2268219 C37.15973878 85.22171449 35.77298443 85.21649848 34.38623047 85.21118164 C32.97518463 85.2093174 31.56413815 85.20789353 30.15309143 85.20689392 C26.43273137 85.20306918 22.71241012 85.19323929 18.99206543 85.18218994 C15.19832891 85.17197487 11.40458614 85.1673961 7.61083984 85.16235352 C0.16225441 85.15161697 -7.28629901 85.13454109 -14.73486328 85.11352539 C-14.81558652 74.5799441 -14.81558652 74.5799441 -14.29736328 69.98071289 C-14.20712891 69.15571289 -14.11689453 68.33071289 -14.02392578 67.48071289 C-13.92853516 66.65829102 -13.83314453 65.83586914 -13.73486328 64.98852539 C-13.63947266 64.12743164 -13.54408203 63.26633789 -13.44580078 62.37915039 C-13.21367998 60.29006318 -12.97498288 58.20170833 -12.73486328 56.11352539 C-9.83874789 55.28532985 -7.26599428 54.98724026 -4.25756836 54.98413086 C-3.38018509 54.9809787 -2.50280182 54.97782654 -1.59883118 54.97457886 C-0.66016708 54.97660309 0.27849701 54.97862732 1.24560547 54.98071289 C2.21419998 54.97975616 3.18279449 54.97879944 4.18074036 54.97781372 C6.22409124 54.97713407 8.2674443 54.97897337 10.31079102 54.9831543 C13.45122062 54.98852297 16.59150833 54.98319311 19.73193359 54.97680664 C21.71565787 54.97746712 23.69938206 54.97874765 25.68310547 54.98071289 C27.10021065 54.97767654 27.10021065 54.97767654 28.54594421 54.97457886 C29.413871 54.97773102 30.28179779 54.98088318 31.17602539 54.98413086 C31.94339523 54.98492645 32.71076508 54.98572205 33.50138855 54.98654175 C35.26513672 55.11352539 35.26513672 55.11352539 36.26513672 56.11352539 C36.20043506 58.79570308 36.07393557 61.43925215 35.89013672 64.11352539 C35.84630859 64.86375977 35.80248047 65.61399414 35.75732422 66.38696289 C35.39354526 71.98511685 35.39354526 71.98511685 34.26513672 73.11352539 C32.43397789 73.2120371 30.59893739 73.24325168 28.76513672 73.23852539 C27.76482422 73.24110352 26.76451172 73.24368164 25.73388672 73.24633789 C23.26513672 73.11352539 23.26513672 73.11352539 22.26513672 72.11352539 C22.26513672 70.46352539 22.26513672 68.81352539 22.26513672 67.11352539 C14.67513672 67.11352539 7.08513672 67.11352539 -0.73486328 67.11352539 C-0.73486328 69.42352539 -0.73486328 71.73352539 -0.73486328 74.11352539 C11.47513672 74.11352539 23.68513672 74.11352539 36.26513672 74.11352539 C36.59513672 67.84352539 36.92513672 61.57352539 37.26513672 55.11352539 C13.01013672 54.61852539 13.01013672 54.61852539 -11.73486328 54.11352539 C-11.73486328 38.35457873 -11.73486328 38.35457873 -11.11376953 31.73852539 C-11.04955307 31.04009521 -10.98533661 30.34166504 -10.91917419 29.62207031 C-10.78513663 28.1770459 -10.6481218 26.73229441 -10.50805664 25.2878418 C-10.29492836 23.08839748 -10.0913045 20.88822278 -9.88916016 18.68774414 C-8.61688315 5.09025377 -8.61688315 5.09025377 -7.73486328 1.11352539 C-5.05387275 -0.22696987 -3.00175122 -0.00627981 0 0 Z M9.26513672 12.11352539 C9.26513672 12.44352539 9.26513672 12.77352539 9.26513672 13.11352539 C12.89513672 13.11352539 16.52513672 13.11352539 20.26513672 13.11352539 C20.26513672 12.78352539 20.26513672 12.45352539 20.26513672 12.11352539 C16.63513672 12.11352539 13.00513672 12.11352539 9.26513672 12.11352539 Z M25.26513672 12.11352539 C25.26513672 12.44352539 25.26513672 12.77352539 25.26513672 13.11352539 C27.90513672 13.11352539 30.54513672 13.11352539 33.26513672 13.11352539 C33.26513672 12.78352539 33.26513672 12.45352539 33.26513672 12.11352539 C30.62513672 12.11352539 27.98513672 12.11352539 25.26513672 12.11352539 Z M39.26513672 12.11352539 C39.17425781 13.70293945 39.17425781 13.70293945 39.08154297 15.32446289 C38.99713545 16.7124976 38.91248755 18.10051771 38.82763672 19.48852539 C38.78832031 20.18719727 38.74900391 20.88586914 38.70849609 21.60571289 C38.37841797 26.88696289 38.37841797 26.88696289 37.26513672 29.11352539 C34.76123047 29.52758789 34.76123047 29.52758789 31.70263672 29.73852539 C30.69072266 29.81329102 29.67880859 29.88805664 28.63623047 29.96508789 C27.85376953 30.01407227 27.07130859 30.06305664 26.26513672 30.11352539 C26.26513672 28.13352539 26.26513672 26.15352539 26.26513672 24.11352539 C23.29513672 24.11352539 20.32513672 24.11352539 17.26513672 24.11352539 C17.26513672 26.42352539 17.26513672 28.73352539 17.26513672 31.11352539 C24.52513672 31.11352539 31.78513672 31.11352539 39.26513672 31.11352539 C40.91493742 27.81392399 40.64772033 24.12224655 40.82763672 20.48852539 C40.87082031 19.68672852 40.91400391 18.88493164 40.95849609 18.05883789 C41.06465129 16.07727429 41.16540527 14.09542268 41.26513672 12.11352539 C40.60513672 12.11352539 39.94513672 12.11352539 39.26513672 12.11352539 Z " fill="#8A8584" transform="translate(33.73486328125,11.886474609375)"/>
<path d="M0 0 C10.89 0 21.78 0 33 0 C32.690625 4.929375 32.38125 9.85875 32.0625 14.9375 C31.96718994 16.47398193 31.87187988 18.01046387 31.77368164 19.59350586 C31.65561157 21.44794312 31.65561157 21.44794312 31.53515625 23.33984375 C31.456604 24.59144287 31.37805176 25.84304199 31.29711914 27.13256836 C30.96690459 31.43078427 30.47605725 35.71548472 30 40 C14.49 40 -1.02 40 -17 40 C-16.34 30.76 -15.68 21.52 -15 12 C-4.44 12 6.12 12 17 12 C17 16.95 17 21.9 17 27 C13.7 27 10.4 27 7 27 C7 25.35 7 23.7 7 22 C3.37 22 -0.26 22 -4 22 C-4 24.64 -4 27.28 -4 30 C3.59 30 11.18 30 19 30 C19.66 23.07 20.32 16.14 21 9 C2.19 9.495 2.19 9.495 -17 10 C-17.66 14.29 -18.32 18.58 -19 23 C-23.455 22.01 -23.455 22.01 -28 21 C-28.22275681 17.73290013 -28.32663401 15.60427292 -26.75 12.6875 C-24.82013689 10.82656057 -23.62434747 10.36197896 -21 10 C-21 9.34 -21 8.68 -21 8 C-20.34 8 -19.68 8 -19 8 C-19 7.34 -19 6.68 -19 6 C-17.02 5.67 -15.04 5.34 -13 5 C-12.67 4.01 -12.34 3.02 -12 2 C-4.25 2.875 -4.25 2.875 -2 4 C-2 3.34 -2 2.68 -2 2 C-1.34 2 -0.68 2 0 2 C0 1.34 0 0.68 0 0 Z " fill="#F5F2F0" transform="translate(54,13)"/>
<path d="M0 0 C2.475 0.99 2.475 0.99 5 2 C5.39036521 14.51337378 4.09594446 26.3966387 3 39 C-17.13 39 -37.26 39 -58 39 C-57 26 -57 26 -53.625 22.6875 C-50 21 -50 21 -47 21 C-46.67 23.31 -46.34 25.62 -46 28 C-40.60653012 28.02464849 -35.21309275 28.04283531 -29.81958008 28.05493164 C-27.98331125 28.05997231 -26.14704646 28.06680477 -24.31079102 28.07543945 C-21.67723599 28.08751672 -19.04373384 28.09323081 -16.41015625 28.09765625 C-15.17109276 28.10539818 -15.17109276 28.10539818 -13.90699768 28.11329651 C-11.93763632 28.11349205 -9.96838386 28.06204152 -8 28 C-5.64012532 25.64012532 -6.53733123 19.80537602 -6.37890625 16.61328125 C-5.89939044 12.04057891 -5.31160972 8.31160972 -2 5 C-1.63837971 3.67405895 -1.30271961 2.34061543 -1 1 C-0.67 0.67 -0.34 0.34 0 0 Z " fill="#F5F1F0" transform="translate(78,57)"/>
<path d="M0 0 C10.56 0 21.12 0 32 0 C32 4.95 32 9.9 32 15 C28.7 15 25.4 15 22 15 C22 13.35 22 11.7 22 10 C18.37 10 14.74 10 11 10 C11 12.64 11 15.28 11 18 C17.93 18 24.86 18 32 18 C30.02 18.99 30.02 18.99 28 20 C28 20.66 28 21.32 28 22 C27.34 22 26.68 22 26 22 C25.67 23.32 25.34 24.64 25 26 C31.6 26.33 38.2 26.66 45 27 C45 27.33 45 27.66 45 28 C29.49 28 13.98 28 -2 28 C-1.34 18.76 -0.68 9.52 0 0 Z " fill="#E9E5E7" transform="translate(39,25)"/>
<path d="M0 0 C1.32 0.66 2.64 1.32 4 2 C3.34 2 2.68 2 2 2 C2 2.66 2 3.32 2 4 C3.32 4 4.64 4 6 4 C6 3.34 6 2.68 6 2 C7.32 2 8.64 2 10 2 C10 7.94 10 13.88 10 20 C21.88 20.33 33.76 20.66 46 21 C46 21.66 46 22.32 46 23 C44.35 23.33 42.7 23.66 41 24 C41.825 24.45375 42.65 24.9075 43.5 25.375 C44.325 25.91125 45.15 26.4475 46 27 C46 27.66 46 28.32 46 29 C30.16 29 14.32 29 -2 29 C-2 13.25 -2 13.25 -1 6.625 C-0.814375 5.35914063 -0.62875 4.09328125 -0.4375 2.7890625 C-0.293125 1.86867187 -0.14875 0.94828125 0 0 Z " fill="#F7F4F2" transform="translate(25,35)"/>
<path d="M0 0 C1.02787125 0.00212242 1.02787125 0.00212242 2.07650757 0.00428772 C4.26719511 0.0098895 6.4577808 0.02244219 8.6484375 0.03515625 C10.13281102 0.04017103 11.61718615 0.04473397 13.1015625 0.04882812 C16.7422584 0.05900904 20.38273381 0.07858388 24.0234375 0.09765625 C24.0234375 5.04765625 24.0234375 9.99765625 24.0234375 15.09765625 C20.3934375 15.09765625 16.7634375 15.09765625 13.0234375 15.09765625 C12.6934375 13.44765625 12.3634375 11.79765625 12.0234375 10.09765625 C10.8890625 10.06027344 9.7546875 10.02289063 8.5859375 9.984375 C-6.27584712 9.37672973 -6.27584712 9.37672973 -12.9765625 6.09765625 C-12.3165625 5.64390625 -11.6565625 5.19015625 -10.9765625 4.72265625 C-10.3165625 4.18640625 -9.6565625 3.65015625 -8.9765625 3.09765625 C-8.9765625 2.43765625 -8.9765625 1.77765625 -8.9765625 1.09765625 C-6.00296801 -0.389141 -3.31357071 -0.0134698 0 0 Z " fill="#F8F4F2" transform="translate(43.9765625,67.90234375)"/>
<path d="M0 0 C1.37636375 -0.00472824 1.37636375 -0.00472824 2.78053284 -0.009552 C4.26963417 -0.00651566 4.26963417 -0.00651566 5.78881836 -0.00341797 C7.31254311 -0.00485306 7.31254311 -0.00485306 8.86705017 -0.00631714 C11.01651064 -0.00699836 13.16597316 -0.00514808 15.31542969 -0.00097656 C18.61845483 0.00437798 21.92134432 -0.00092635 25.22436523 -0.00732422 C27.30834991 -0.00666354 29.3923345 -0.00538258 31.47631836 -0.00341797 C32.47107681 -0.0054422 33.46583527 -0.00746643 34.49073792 -0.009552 C35.40516159 -0.00639984 36.31958527 -0.00324768 37.26171875 0 C38.07065079 0.00079559 38.87958282 0.00159119 39.71302795 0.00241089 C41.56616211 0.12939453 41.56616211 0.12939453 42.56616211 1.12939453 C42.50146045 3.81157222 42.37496096 6.45512129 42.19116211 9.12939453 C42.14733398 9.87962891 42.10350586 10.62986328 42.05834961 11.40283203 C41.69457065 17.00098599 41.69457065 17.00098599 40.56616211 18.12939453 C38.73500328 18.22790624 36.89996278 18.25912082 35.06616211 18.25439453 C34.06584961 18.25697266 33.06553711 18.25955078 32.03491211 18.26220703 C29.56616211 18.12939453 29.56616211 18.12939453 28.56616211 17.12939453 C28.56616211 15.47939453 28.56616211 13.82939453 28.56616211 12.12939453 C20.97616211 12.12939453 13.38616211 12.12939453 5.56616211 12.12939453 C5.56616211 14.43939453 5.56616211 16.74939453 5.56616211 19.12939453 C4.90616211 18.79939453 4.24616211 18.46939453 3.56616211 18.12939453 C3.56616211 15.81939453 3.56616211 13.50939453 3.56616211 11.12939453 C0.07243679 12.30115837 -2.71425829 13.6136591 -5.43383789 16.12939453 C-6.82398727 20.43000646 -7.22950006 24.62737075 -7.43383789 29.12939453 C-7.76383789 29.12939453 -8.09383789 29.12939453 -8.43383789 29.12939453 C-8.29408384 25.58746079 -8.14594855 22.04592455 -7.99633789 18.50439453 C-7.95702148 17.50537109 -7.91770508 16.50634766 -7.87719727 15.47705078 C-7.43065134 5.10344552 -7.43065134 5.10344552 -6.43383789 1.12939453 C-4.06758794 -0.05373044 -2.63857219 0.00259251 0 0 Z M7.56616211 2.12939453 C7.56616211 3.11939453 7.56616211 4.10939453 7.56616211 5.12939453 C5.58616211 6.11939453 5.58616211 6.11939453 3.56616211 7.12939453 C11.53414356 11.0286195 19.86078782 10.84251288 28.56616211 11.12939453 C28.89616211 12.77939453 29.22616211 14.42939453 29.56616211 16.12939453 C33.19616211 16.12939453 36.82616211 16.12939453 40.56616211 16.12939453 C40.56616211 11.17939453 40.56616211 6.22939453 40.56616211 1.12939453 C36.18784167 1.10645804 31.8097291 1.08653905 27.43139648 1.07446289 C25.94148045 1.06942939 24.45156937 1.06260211 22.96166992 1.05395508 C20.82200907 1.04184648 18.68241343 1.03615646 16.54272461 1.03173828 C15.25446777 1.02650146 13.96621094 1.02126465 12.63891602 1.01586914 C9.65210983 0.91396822 9.65210983 0.91396822 7.56616211 2.12939453 Z " fill="#979290" transform="translate(27.433837890625,66.87060546875)"/>
<path d="M0 0 C1.60279192 0.00015914 3.20558896 0.00585476 4.80834961 0.01586914 C5.65038437 0.01728409 6.49241913 0.01869904 7.35997009 0.02015686 C10.06024671 0.02577276 12.76044163 0.03832791 15.46069336 0.05102539 C17.28686404 0.05603834 19.11303602 0.06060161 20.93920898 0.06469727 C25.42556878 0.07574735 29.9118672 0.0930226 34.39819336 0.11352539 C34.39819336 0.77352539 34.39819336 1.43352539 34.39819336 2.11352539 C33.73819336 2.11352539 33.07819336 2.11352539 32.39819336 2.11352539 C32.89319336 3.59852539 32.89319336 3.59852539 33.39819336 5.11352539 C33.3620392 7.11590986 33.24958012 9.11753145 33.08569336 11.11352539 C33.00706055 12.16540039 32.92842773 13.21727539 32.84741211 14.30102539 C32.39819336 17.11352539 32.39819336 17.11352539 30.39819336 20.11352539 C27.79663086 20.40649414 27.79663086 20.40649414 24.77319336 20.30102539 C23.26885742 20.26041992 23.26885742 20.26041992 21.73413086 20.21899414 C20.96327148 20.18418945 20.19241211 20.14938477 19.39819336 20.11352539 C18.27319336 16.36352539 18.27319336 16.36352539 19.39819336 14.11352539 C16.42819336 14.11352539 13.45819336 14.11352539 10.39819336 14.11352539 C10.39819336 16.42352539 10.39819336 18.73352539 10.39819336 21.11352539 C10.06819336 21.11352539 9.73819336 21.11352539 9.39819336 21.11352539 C9.39819336 18.47352539 9.39819336 15.83352539 9.39819336 13.11352539 C13.02819336 13.11352539 16.65819336 13.11352539 20.39819336 13.11352539 C20.39819336 14.76352539 20.39819336 16.41352539 20.39819336 18.11352539 C23.69819336 18.11352539 26.99819336 18.11352539 30.39819336 18.11352539 C30.39819336 13.16352539 30.39819336 8.21352539 30.39819336 3.11352539 C28.26737305 3.12512695 26.13655273 3.13672852 23.94116211 3.14868164 C21.87597808 3.15648182 19.81079569 3.16255311 17.74560547 3.16845703 C16.31102768 3.17348381 14.876455 3.18030618 13.44189453 3.18896484 C11.37913754 3.20110291 9.31644832 3.20677025 7.25366211 3.21118164 C6.01253662 3.21641846 4.77141113 3.22165527 3.49267578 3.22705078 C0.39819336 3.11352539 0.39819336 3.11352539 -2.60180664 2.11352539 C-2.59020508 2.70633301 -2.57860352 3.29914062 -2.56665039 3.90991211 C-2.49573645 10.4149998 -2.92968166 16.77159313 -3.60180664 23.23852539 C-3.69719727 24.19500977 -3.79258789 25.15149414 -3.89086914 26.13696289 C-4.12346914 28.46296293 -4.36050344 30.78841498 -4.60180664 33.11352539 C-5.26180664 33.11352539 -5.92180664 33.11352539 -6.60180664 33.11352539 C-6.91484192 25.68763293 -6.35713198 18.37554148 -5.66430664 10.98852539 C-5.57745605 10.03953369 -5.49060547 9.09054199 -5.40112305 8.11279297 C-5.3139502 7.22358154 -5.22677734 6.33437012 -5.13696289 5.41821289 C-5.05841064 4.61367676 -4.9798584 3.80914063 -4.89892578 2.98022461 C-4.35549385 -0.43397472 -3.66212962 0.11542671 0 0 Z " fill="#494441" transform="translate(40.601806640625,21.886474609375)"/>
<path d="M0 0 C2.31 0.33 4.62 0.66 7 1 C7 4.3 7 7.6 7 11 C1.39 11 -4.22 11 -10 11 C-9.34 10.34 -8.68 9.68 -8 9 C-7.34 9.33 -6.68 9.66 -6 10 C-6 9.34 -6 8.68 -6 8 C-8.97 7.505 -8.97 7.505 -12 7 C-12.33 8.32 -12.66 9.64 -13 11 C-13.99 11 -14.98 11 -16 11 C-16.33 9.68 -16.66 8.36 -17 7 C-19.97 6.505 -19.97 6.505 -23 6 C-23 6.66 -23 7.32 -23 8 C-24.32 7.67 -25.64 7.34 -27 7 C-26.34 7 -25.68 7 -25 7 C-24.67 5.68 -24.34 4.36 -24 3 C-20.52125243 2.80409556 -17.04199096 2.61968408 -13.5625 2.4375 C-12.56927734 2.38142578 -11.57605469 2.32535156 -10.55273438 2.26757812 C-9.60849609 2.21923828 -8.66425781 2.17089844 -7.69140625 2.12109375 C-6.81685791 2.0739624 -5.94230957 2.02683105 -5.04125977 1.97827148 C-3 2 -3 2 -2 3 C-1.34 2.01 -0.68 1.02 0 0 Z " fill="#F9F5F3" transform="translate(73,84)"/>
<path d="M0 0 C0.66 0 1.32 0 2 0 C2 0.99 2 1.98 2 3 C2.66 3 3.32 3 4 3 C4 2.01 4 1.02 4 0 C5.2065625 0.2475 5.2065625 0.2475 6.4375 0.5 C8.7284443 1.03191839 8.7284443 1.03191839 10 1 C10.33 1 10.66 1 11 1 C11 5.29 11 9.58 11 14 C7.37 14 3.74 14 0 14 C-0.33 12.35 -0.66 10.7 -1 9 C-1.66 8.67 -2.32 8.34 -3 8 C-3 6 -3 6 -1 4 C-0.3574765 1.93125966 -0.3574765 1.93125966 0 0 Z " fill="#F7F4F2" transform="translate(57,69)"/>
<path d="M0 0 C11.88 0 23.76 0 36 0 C36 0.33 36 0.66 36 1 C26.1 1.495 26.1 1.495 16 2 C15.67 2.99 15.34 3.98 15 5 C15.66 5.33 16.32 5.66 17 6 C17 5.34 17 4.68 17 4 C19.97 4.495 19.97 4.495 23 5 C23.495 6.98 23.495 6.98 24 9 C25.32 9.33 26.64 9.66 28 10 C14.8 10 1.6 10 -12 10 C-12 9.67 -12 9.34 -12 9 C-4.41 8.67 3.18 8.34 11 8 C11 6.02 11 4.04 11 2 C5.555 1.505 5.555 1.505 0 1 C0 0.67 0 0.34 0 0 Z " fill="#E9E5E8" transform="translate(33,86)"/>
<path d="M0 0 C1.98 0 3.96 0 6 0 C6.33 0.66 6.66 1.32 7 2 C6.20207031 2.19335938 5.40414062 2.38671875 4.58203125 2.5859375 C1.67857053 3.78498188 1.67857053 3.78498188 1.07421875 7.0390625 C0.88279297 8.81410156 0.88279297 8.81410156 0.6875 10.625 C0.54699219 11.81351563 0.40648437 13.00203125 0.26171875 14.2265625 C0.17535156 15.14179687 0.08898438 16.05703125 0 17 C-4.455 16.01 -4.455 16.01 -9 15 C-9.22275681 11.73290013 -9.32663401 9.60427292 -7.75 6.6875 C-5.82013689 4.82656057 -4.62434747 4.36197896 -2 4 C-2 3.34 -2 2.68 -2 2 C-1.34 2 -0.68 2 0 2 C0 1.34 0 0.68 0 0 Z " fill="#F8F5F3" transform="translate(35,19)"/>
<path d="M0 0 C2.475 0.99 2.475 0.99 5 2 C5.10834375 6.44209357 4.70173653 10.61414671 4 15 C0.25 16.125 0.25 16.125 -2 15 C-2 14.34 -2 13.68 -2 13 C-2.66 13 -3.32 13 -4 13 C-4.33 13.66 -4.66 14.32 -5 15 C-5.37153846 8.43615385 -5.37153846 8.43615385 -3.5625 6.3125 C-3.046875 5.879375 -2.53125 5.44625 -2 5 C-1.3574765 2.93125966 -1.3574765 2.93125966 -1 1 C-0.67 0.67 -0.34 0.34 0 0 Z " fill="#F8F5F3" transform="translate(78,57)"/>
<path d="M0 0 C3.63 0 7.26 0 11 0 C7 3 7 3 5 3 C5 3.66 5 4.32 5 5 C6.36125 4.443125 6.36125 4.443125 7.75 3.875 C11 3 11 3 13.375 3.875 C13.91125 4.24625 14.4475 4.6175 15 5 C14.34 5 13.68 5 13 5 C13.33 5.99 13.66 6.98 14 8 C13.06027344 7.98259766 13.06027344 7.98259766 12.1015625 7.96484375 C10.87566406 7.95130859 10.87566406 7.95130859 9.625 7.9375 C8.40683594 7.92009766 8.40683594 7.92009766 7.1640625 7.90234375 C4.95062858 7.85533666 4.95062858 7.85533666 3 9 C3 9.66 3 10.32 3 11 C2.01 11.495 2.01 11.495 1 12 C1 12.66 1 13.32 1 14 C0.34 14 -0.32 14 -1 14 C-1.02705729 12.22925083 -1.04642195 10.45838289 -1.0625 8.6875 C-1.07410156 7.70136719 -1.08570313 6.71523438 -1.09765625 5.69921875 C-1 3 -1 3 0 0 Z " fill="#F9F6F3" transform="translate(41,26)"/>
<path d="M0 0 C1.32 0 2.64 0 4 0 C4 1.32 4 2.64 4 4 C4.66 4 5.32 4 6 4 C6 7.3 6 10.6 6 14 C2.7 14 -0.6 14 -4 14 C-4 12.02 -4 10.04 -4 8 C-2.68 8 -1.36 8 0 8 C0 6.68 0 5.36 0 4 C-0.66 4 -1.32 4 -2 4 C-2 3.34 -2 2.68 -2 2 C-1.34 2 -0.68 2 0 2 C0 1.34 0 0.68 0 0 Z " fill="#F5F2F0" transform="translate(65,26)"/>
<path d="M0 0 C1.65 0 3.3 0 5 0 C4.34 0.66 3.68 1.32 3 2 C3 2.33 3 2.66 3 3 C4.98 3.66 6.96 4.32 9 5 C9 5.99 9 6.98 9 8 C5.89601022 8.08710289 2.79233452 8.14042309 -0.3125 8.1875 C-1.19357422 8.21263672 -2.07464844 8.23777344 -2.98242188 8.26367188 C-4.25375977 8.27817383 -4.25375977 8.27817383 -5.55078125 8.29296875 C-6.33106689 8.3086792 -7.11135254 8.32438965 -7.9152832 8.34057617 C-10.49903853 7.91847304 -11.36292167 6.98510058 -13 5 C-12.67 4.01 -12.34 3.02 -12 2 C-4.25 2.875 -4.25 2.875 -2 4 C-2 3.34 -2 2.68 -2 2 C-1.34 2 -0.68 2 0 2 C0 1.34 0 0.68 0 0 Z " fill="#F9F5F3" transform="translate(54,13)"/>
<path d="M0 0 C0.33 0 0.66 0 1 0 C1 2.97 1 5.94 1 9 C1.66 9 2.32 9 3 9 C3 9.66 3 10.32 3 11 C3.66 11.33 4.32 11.66 5 12 C3.68 12.33 2.36 12.66 1 13 C0.67 15.64 0.34 18.28 0 21 C4.455 21.99 4.455 21.99 9 23 C9 21.02 9 19.04 9 17 C9.33 17 9.66 17 10 17 C10 19.31 10 21.62 10 24 C8.35 24 6.7 24 5 24 C5 24.66 5 25.32 5 26 C3.68 26 2.36 26 1 26 C0.67 25.01 0.34 24.02 0 23 C-0.66 27.62 -1.32 32.24 -2 37 C-2.33 37 -2.66 37 -3 37 C-2.47728784 24.59246407 -1.5168156 12.32596752 0 0 Z " fill="#BFBBBE" transform="translate(26,13)"/>
<path d="M0 0 C0.33 1.32 0.66 2.64 1 4 C2.27875 3.979375 3.5575 3.95875 4.875 3.9375 C8.75 3.875 8.75 3.875 11 5 C10.67 7.31 10.34 9.62 10 12 C9.01 11.67 8.02 11.34 7 11 C7 10.34 7 9.68 7 9 C6.34 9 5.68 9 5 9 C5 9.66 5 10.32 5 11 C3.35 11.33 1.7 11.66 0 12 C0 14.31 0 16.62 0 19 C-0.66 19.33 -1.32 19.66 -2 20 C-1.85834107 17.60385425 -1.71181159 15.20817103 -1.5625 12.8125 C-1.52318359 12.13896484 -1.48386719 11.46542969 -1.44335938 10.77148438 C-1.21072435 7.10300898 -0.82792989 3.58305794 0 0 Z " fill="#DFDBDE" transform="translate(75,23)"/>
<path d="M0 0 C1.65 0 3.3 0 5 0 C5 0.66 5 1.32 5 2 C3.02 2.33 1.04 2.66 -1 3 C-0.67 2.01 -0.34 1.02 0 0 Z M-9 1 C-7.41531323 1.45363171 -5.83230076 1.91311452 -4.25 2.375 C-3.36828125 2.63023438 -2.4865625 2.88546875 -1.578125 3.1484375 C0.76080572 3.9209934 2.83442562 4.83625676 5 6 C5 6.66 5 7.32 5 8 C0.38 8 -4.24 8 -9 8 C-8.34 7.34 -7.68 6.68 -7 6 C-7.66 5.67 -8.32 5.34 -9 5 C-9 3.68 -9 2.36 -9 1 Z " fill="#FAF7F4" transform="translate(66,56)"/>
<path d="M0 0 C0.9882878 3.26598233 1.07404899 6.16087437 1 9.5625 C0.92947393 12.81110719 0.96402522 14.89207566 2 18 C1.01 18.33 0.02 18.66 -1 19 C-1 17.35 -1 15.7 -1 14 C-2.32 13.67 -3.64 13.34 -5 13 C-5 12.34 -5 11.68 -5 11 C-4.34 11 -3.68 11 -3 11 C-3.33 10.01 -3.66 9.02 -4 8 C-3.34 7.34 -2.68 6.68 -2 6 C-2.99 5.34 -3.98 4.68 -5 4 C-3.35 2.68 -1.7 1.36 0 0 Z " fill="#F0ECEC" transform="translate(34,40)"/>
<path d="M0 0 C2.31 0.33 4.62 0.66 7 1 C7 1.66 7 2.32 7 3 C7.99 3.33 8.98 3.66 10 4 C6.7 4 3.4 4 0 4 C0 2.68 0 1.36 0 0 Z " fill="#F9F6F3" transform="translate(39,48)"/>
<path d="M0 0 C0.94875 0.350625 1.8975 0.70125 2.875 1.0625 C2.875 1.7225 2.875 2.3825 2.875 3.0625 C1.885 3.0625 0.895 3.0625 -0.125 3.0625 C0.205 3.7225 0.535 4.3825 0.875 5.0625 C-0.775 4.7325 -2.425 4.4025 -4.125 4.0625 C-3.795 3.0725 -3.465 2.0825 -3.125 1.0625 C-3.785 0.7325 -4.445 0.4025 -5.125 0.0625 C-3.125 -0.9375 -3.125 -0.9375 0 0 Z " fill="#F2EEEE" transform="translate(64.125,90.9375)"/>
<path d="M0 0 C0.33 0 0.66 0 1 0 C1 3.3 1 6.6 1 10 C0.67 9.34 0.34 8.68 0 8 C-1.97888961 7.27306096 -3.97954558 6.60183749 -6 6 C-5.34 5.34 -4.68 4.68 -4 4 C-2.68 4 -1.36 4 0 4 C0 2.68 0 1.36 0 0 Z " fill="#D8D4D7" transform="translate(67,73)"/>
<path d="M0 0 C0.33 0 0.66 0 1 0 C1 1.65 1 3.3 1 5 C1.99 5.33 2.98 5.66 4 6 C4 6.99 4 7.98 4 9 C4.66 9.33 5.32 9.66 6 10 C5.01 10.33 4.02 10.66 3 11 C2.01 10.34 1.02 9.68 0 9 C-0.29296875 6.8359375 -0.29296875 6.8359375 -0.1875 4.375 C-0.16042969 3.55773438 -0.13335938 2.74046875 -0.10546875 1.8984375 C-0.05326172 0.95871094 -0.05326172 0.95871094 0 0 Z " fill="#E6E2E5" transform="translate(23,50)"/>
<path d="M0 0 C2.0625 0.4375 2.0625 0.4375 4 1 C3.67 2.65 3.34 4.3 3 6 C1.68 6 0.36 6 -1 6 C-1.042721 4.33388095 -1.04063832 2.66617115 -1 1 C-0.67 0.67 -0.34 0.34 0 0 Z " fill="#F7F4F2" transform="translate(23,69)"/>
</svg>
